<svg width="740" height="180" viewBox="0 0 740 180" fill="none" xmlns="http://www.w3.org/2000/svg">
<rect x="340.5" y="0.5" width="149" height="151.697" fill="#374769" stroke="black"/>
<rect x="340.5" y="152.185" width="149" height="27.3146" stroke="black"/>
<path d="M442.687 17.0899L444.069 9.9805H444.772L443.385 17.0899H442.687ZM444.674 17.0899L446.061 9.9805H446.759L445.372 17.0899H444.674ZM447.355 12.6905H442.277V12.0117H447.355V12.6905ZM446.989 15.0879H441.906V14.4141H446.989V15.0879ZM449.396 13.0909H450.04C450.356 13.0909 450.616 13.0388 450.822 12.9346C451.03 12.8272 451.184 12.6823 451.285 12.5C451.39 12.3145 451.442 12.1062 451.442 11.875C451.442 11.6016 451.396 11.3721 451.305 11.1866C451.214 11.001 451.077 10.861 450.895 10.7666C450.712 10.6722 450.481 10.625 450.201 10.625C449.948 10.625 449.723 10.6755 449.528 10.7764C449.336 10.8741 449.184 11.014 449.073 11.1963C448.966 11.3786 448.912 11.5935 448.912 11.8409H448.009C448.009 11.4795 448.1 11.1507 448.282 10.8545C448.465 10.5583 448.72 10.3223 449.049 10.1465C449.381 9.97073 449.765 9.88284 450.201 9.88284C450.631 9.88284 451.007 9.95934 451.329 10.1123C451.652 10.2621 451.902 10.4867 452.081 10.7862C452.26 11.0824 452.35 11.4519 452.35 11.8946C452.35 12.0736 452.308 12.2657 452.223 12.4707C452.142 12.6726 452.013 12.8614 451.837 13.0371C451.665 13.2129 451.44 13.3578 451.163 13.4717C450.887 13.5824 450.555 13.6377 450.167 13.6377H449.396V13.0909ZM449.396 13.833V13.291H450.167C450.62 13.291 450.994 13.3448 451.29 13.4522C451.587 13.5596 451.819 13.7028 451.989 13.8819C452.161 14.0609 452.281 14.2578 452.35 14.4727C452.421 14.6843 452.457 14.8959 452.457 15.1075C452.457 15.4395 452.4 15.7341 452.286 15.9912C452.176 16.2484 452.018 16.4665 451.813 16.6455C451.611 16.8246 451.373 16.9597 451.1 17.0508C450.826 17.142 450.529 17.1875 450.206 17.1875C449.897 17.1875 449.606 17.1436 449.332 17.0557C449.062 16.9678 448.823 16.8409 448.615 16.6748C448.406 16.5056 448.243 16.2989 448.126 16.0547C448.009 15.8073 447.95 15.5257 447.95 15.21H448.854C448.854 15.4574 448.907 15.6739 449.015 15.8594C449.126 16.045 449.282 16.1898 449.484 16.294C449.689 16.3949 449.93 16.4453 450.206 16.4453C450.483 16.4453 450.721 16.3981 450.919 16.3037C451.121 16.2061 451.276 16.0596 451.383 15.8643C451.494 15.669 451.549 15.4232 451.549 15.127C451.549 14.8308 451.487 14.5882 451.364 14.3994C451.24 14.2074 451.064 14.0658 450.836 13.9746C450.612 13.8802 450.346 13.833 450.04 13.833H449.396ZM458.297 9.9805V10.4883L455.353 17.0899H454.401L457.34 10.7227H453.492V9.9805H458.297ZM464.132 14.6973V15.4395H458.995V14.9073L462.179 9.9805H462.916L462.125 11.4063L460.021 14.6973H464.132ZM463.141 9.9805V17.0899H462.238V9.9805H463.141ZM469.547 9.9805V10.4883L466.603 17.0899H465.651L468.59 10.7227H464.742V9.9805H469.547ZM474.044 9.97073H474.122V10.7373H474.044C473.566 10.7373 473.165 10.8155 472.843 10.9717C472.521 11.1247 472.265 11.3314 472.076 11.5918C471.888 11.849 471.751 12.1387 471.666 12.461C471.585 12.7832 471.544 13.1104 471.544 13.4424V14.4873C471.544 14.8031 471.582 15.083 471.656 15.3272C471.731 15.5681 471.834 15.7715 471.964 15.9375C472.094 16.1035 472.241 16.2289 472.404 16.3135C472.57 16.3981 472.742 16.4405 472.921 16.4405C473.129 16.4405 473.315 16.4014 473.478 16.3233C473.641 16.2419 473.777 16.1296 473.888 15.9864C474.002 15.8399 474.088 15.6673 474.147 15.4688C474.205 15.2702 474.235 15.0521 474.235 14.8145C474.235 14.6029 474.209 14.3994 474.156 14.2041C474.104 14.0056 474.025 13.8298 473.917 13.6768C473.81 13.5205 473.675 13.3985 473.512 13.3106C473.352 13.2194 473.162 13.1739 472.941 13.1739C472.69 13.1739 472.456 13.2357 472.238 13.3594C472.023 13.4798 471.845 13.6394 471.705 13.8379C471.569 14.0332 471.49 14.2464 471.471 14.4776L470.992 14.4727C471.038 14.1081 471.123 13.7972 471.246 13.5401C471.373 13.2797 471.53 13.0681 471.715 12.9053C471.904 12.7393 472.114 12.6188 472.345 12.544C472.579 12.4659 472.827 12.4268 473.087 12.4268C473.442 12.4268 473.748 12.4935 474.005 12.627C474.262 12.7604 474.474 12.9395 474.64 13.1641C474.806 13.3854 474.928 13.6361 475.006 13.916C475.087 14.1927 475.128 14.4776 475.128 14.7705C475.128 15.1058 475.081 15.42 474.987 15.7129C474.892 16.0059 474.751 16.2631 474.562 16.4844C474.376 16.7058 474.147 16.8783 473.873 17.002C473.6 17.1257 473.282 17.1875 472.921 17.1875C472.537 17.1875 472.202 17.1094 471.915 16.9532C471.629 16.7937 471.391 16.5821 471.202 16.3184C471.014 16.0547 470.872 15.7617 470.778 15.4395C470.683 15.1172 470.636 14.7901 470.636 14.458V14.0332C470.636 13.5319 470.686 13.0404 470.787 12.5586C470.888 12.0769 471.062 11.6407 471.31 11.25C471.56 10.8594 471.907 10.5485 472.35 10.3174C472.793 10.0863 473.357 9.97073 474.044 9.97073ZM477.101 16.333H477.194C477.714 16.333 478.138 16.2598 478.463 16.1133C478.789 15.9668 479.039 15.7699 479.215 15.5225C479.391 15.2751 479.511 14.9968 479.576 14.6875C479.642 14.375 479.674 14.0544 479.674 13.7256V12.6367C479.674 12.3145 479.637 12.028 479.562 11.7774C479.49 11.5267 479.389 11.3168 479.259 11.1475C479.132 10.9782 478.987 10.8496 478.824 10.7617C478.662 10.6739 478.489 10.6299 478.307 10.6299C478.099 10.6299 477.911 10.6722 477.745 10.7569C477.583 10.8382 477.444 10.9538 477.33 11.1035C477.22 11.2533 477.135 11.4291 477.076 11.6309C477.018 11.8327 476.989 12.0524 476.989 12.2901C476.989 12.5017 477.015 12.7067 477.067 12.9053C477.119 13.1039 477.198 13.2829 477.306 13.4424C477.413 13.6019 477.547 13.7289 477.706 13.8233C477.869 13.9144 478.059 13.96 478.278 13.96C478.479 13.96 478.668 13.9209 478.844 13.8428C479.023 13.7614 479.181 13.6524 479.318 13.5157C479.458 13.3757 479.568 13.2178 479.65 13.042C479.734 12.8662 479.783 12.6823 479.796 12.4903H480.226C480.226 12.7604 480.172 13.0274 480.065 13.291C479.961 13.5515 479.814 13.7891 479.625 14.0039C479.436 14.2188 479.215 14.3913 478.961 14.5215C478.707 14.6485 478.431 14.7119 478.131 14.7119C477.78 14.7119 477.475 14.6436 477.218 14.5069C476.961 14.3701 476.749 14.1879 476.583 13.96C476.42 13.7321 476.298 13.4782 476.217 13.1983C476.139 12.9151 476.1 12.6286 476.1 12.3389C476.1 12.0004 476.147 11.683 476.241 11.3867C476.336 11.0905 476.476 10.8301 476.661 10.6055C476.847 10.3776 477.076 10.2002 477.35 10.0733C477.627 9.94632 477.946 9.88284 478.307 9.88284C478.714 9.88284 479.06 9.96422 479.347 10.127C479.633 10.2897 479.866 10.5078 480.045 10.7813C480.227 11.0547 480.361 11.3623 480.446 11.7041C480.53 12.0459 480.573 12.3975 480.573 12.7588V13.086C480.573 13.4538 480.548 13.8282 480.499 14.209C480.454 14.5866 480.364 14.9479 480.231 15.293C480.101 15.6381 479.91 15.9473 479.659 16.2207C479.409 16.4909 479.082 16.7058 478.678 16.8653C478.278 17.0215 477.783 17.0996 477.194 17.0996H477.101V16.333Z" fill="white"/>
<path d="M391.052 161.233L393.266 165.516L395.487 161.233H396.77L393.829 166.577V169.764H392.698V166.577L389.757 161.233H391.052ZM399.079 161.233V169.764H397.948V161.233H399.079ZM402.056 164.778V169.764H400.972V163.424H401.997L402.056 164.778ZM401.798 166.354L401.347 166.336C401.35 165.903 401.415 165.502 401.54 165.135C401.665 164.764 401.841 164.442 402.067 164.168C402.294 163.895 402.563 163.684 402.876 163.536C403.192 163.383 403.542 163.307 403.925 163.307C404.237 163.307 404.518 163.35 404.768 163.436C405.018 163.518 405.231 163.651 405.407 163.834C405.587 164.018 405.724 164.256 405.817 164.549C405.911 164.838 405.958 165.192 405.958 165.61V169.764H404.868V165.598C404.868 165.266 404.819 165 404.722 164.801C404.624 164.598 404.481 164.452 404.294 164.362C404.106 164.268 403.876 164.221 403.602 164.221C403.333 164.221 403.087 164.278 402.864 164.391C402.645 164.504 402.456 164.661 402.296 164.86C402.14 165.059 402.016 165.287 401.927 165.545C401.841 165.799 401.798 166.069 401.798 166.354ZM408.126 161.233H409.222L412.016 168.188L414.806 161.233H415.907L412.438 169.764H411.583L408.126 161.233ZM407.768 161.233H408.735L408.893 166.436V169.764H407.768V161.233ZM415.292 161.233H416.259V169.764H415.134V166.436L415.292 161.233ZM419.165 164.778V169.764H418.081V163.424H419.106L419.165 164.778ZM418.907 166.354L418.456 166.336C418.46 165.903 418.524 165.502 418.649 165.135C418.774 164.764 418.95 164.442 419.177 164.168C419.403 163.895 419.673 163.684 419.985 163.536C420.302 163.383 420.651 163.307 421.034 163.307C421.347 163.307 421.628 163.35 421.878 163.436C422.128 163.518 422.341 163.651 422.516 163.834C422.696 164.018 422.833 164.256 422.927 164.549C423.02 164.838 423.067 165.192 423.067 165.61V169.764H421.977V165.598C421.977 165.266 421.929 165 421.831 164.801C421.733 164.598 421.591 164.452 421.403 164.362C421.216 164.268 420.985 164.221 420.712 164.221C420.442 164.221 420.196 164.278 419.974 164.391C419.755 164.504 419.565 164.661 419.405 164.86C419.249 165.059 419.126 165.287 419.036 165.545C418.95 165.799 418.907 166.069 418.907 166.354ZM430.895 165.774H428.733L428.722 164.866H430.684C431.009 164.866 431.292 164.811 431.534 164.702C431.776 164.592 431.964 164.436 432.097 164.233C432.233 164.026 432.302 163.78 432.302 163.495C432.302 163.182 432.241 162.928 432.12 162.733C432.003 162.534 431.821 162.389 431.575 162.299C431.333 162.205 431.024 162.159 430.649 162.159H428.985V169.764H427.854V161.233H430.649C431.087 161.233 431.477 161.278 431.821 161.368C432.165 161.453 432.456 161.59 432.694 161.778C432.936 161.961 433.12 162.196 433.245 162.481C433.37 162.766 433.432 163.108 433.432 163.506C433.432 163.858 433.343 164.176 433.163 164.461C432.983 164.743 432.733 164.973 432.413 165.153C432.097 165.332 431.725 165.448 431.3 165.498L430.895 165.774ZM430.843 169.764H428.288L428.927 168.844H430.843C431.202 168.844 431.507 168.782 431.757 168.657C432.011 168.532 432.204 168.356 432.337 168.129C432.47 167.899 432.536 167.627 432.536 167.315C432.536 166.998 432.479 166.725 432.366 166.495C432.253 166.264 432.075 166.086 431.833 165.961C431.591 165.836 431.278 165.774 430.895 165.774H429.284L429.296 164.866H431.499L431.739 165.194C432.149 165.229 432.497 165.346 432.782 165.545C433.067 165.741 433.284 165.991 433.432 166.295C433.585 166.6 433.661 166.936 433.661 167.303C433.661 167.834 433.544 168.284 433.309 168.651C433.079 169.014 432.753 169.291 432.331 169.483C431.909 169.67 431.413 169.764 430.843 169.764ZM436.345 160.764V169.764H435.255V160.764H436.345ZM441.964 168.299V163.424H443.054V169.764H442.016L441.964 168.299ZM442.169 166.963L442.62 166.952C442.62 167.373 442.575 167.764 442.485 168.123C442.399 168.479 442.259 168.787 442.063 169.049C441.868 169.311 441.612 169.516 441.296 169.664C440.979 169.809 440.595 169.881 440.141 169.881C439.833 169.881 439.55 169.836 439.292 169.746C439.038 169.657 438.819 169.518 438.636 169.33C438.452 169.143 438.309 168.899 438.208 168.598C438.11 168.297 438.061 167.936 438.061 167.514V163.424H439.145V167.526C439.145 167.811 439.177 168.047 439.239 168.235C439.306 168.418 439.393 168.565 439.503 168.674C439.616 168.78 439.741 168.854 439.878 168.897C440.018 168.94 440.163 168.961 440.311 168.961C440.772 168.961 441.138 168.873 441.407 168.698C441.677 168.518 441.87 168.278 441.987 167.977C442.108 167.672 442.169 167.334 442.169 166.963ZM447.337 169.881C446.895 169.881 446.495 169.807 446.136 169.659C445.78 169.506 445.474 169.293 445.216 169.02C444.962 168.746 444.766 168.422 444.63 168.047C444.493 167.672 444.425 167.262 444.425 166.817V166.571C444.425 166.055 444.501 165.596 444.653 165.194C444.806 164.787 445.013 164.444 445.274 164.162C445.536 163.881 445.833 163.668 446.165 163.524C446.497 163.379 446.841 163.307 447.196 163.307C447.649 163.307 448.04 163.385 448.368 163.541C448.7 163.698 448.972 163.916 449.182 164.198C449.393 164.475 449.55 164.803 449.651 165.182C449.753 165.557 449.804 165.967 449.804 166.412V166.899H445.069V166.014H448.72V165.932C448.704 165.651 448.645 165.377 448.544 165.112C448.446 164.846 448.29 164.627 448.075 164.455C447.86 164.284 447.567 164.198 447.196 164.198C446.95 164.198 446.724 164.25 446.516 164.356C446.309 164.457 446.132 164.61 445.983 164.813C445.835 165.016 445.72 165.264 445.638 165.557C445.556 165.85 445.515 166.188 445.515 166.571V166.817C445.515 167.118 445.556 167.401 445.638 167.666C445.724 167.928 445.847 168.159 446.007 168.358C446.171 168.557 446.368 168.713 446.599 168.827C446.833 168.94 447.099 168.996 447.395 168.996C447.778 168.996 448.102 168.918 448.368 168.762C448.634 168.606 448.866 168.397 449.065 168.135L449.722 168.657C449.585 168.864 449.411 169.061 449.2 169.248C448.989 169.436 448.729 169.588 448.421 169.705C448.116 169.823 447.755 169.881 447.337 169.881Z" fill="black"/>
<rect x="510.5" y="0.5" width="149" height="151.697" fill="#222A41" stroke="black"/>
<rect x="510.5" y="152.185" width="149" height="27.3146" stroke="black"/>
<path d="M612.687 17.0899L614.069 9.9805H614.772L613.385 17.0899H612.687ZM614.674 17.0899L616.061 9.9805H616.759L615.372 17.0899H614.674ZM617.355 12.6905H612.277V12.0117H617.355V12.6905ZM616.989 15.0879H611.906V14.4141H616.989V15.0879ZM622.736 16.3477V17.0899H618.082V16.4405L620.411 13.8477C620.698 13.5287 620.919 13.2585 621.075 13.0371C621.235 12.8125 621.346 12.6123 621.407 12.4366C621.473 12.2575 621.505 12.0752 621.505 11.8897C621.505 11.6553 621.456 11.4437 621.359 11.2549C621.264 11.0629 621.124 10.9099 620.939 10.7959C620.753 10.682 620.529 10.625 620.265 10.625C619.949 10.625 619.685 10.6869 619.474 10.8106C619.266 10.931 619.109 11.1003 619.005 11.3184C618.901 11.5365 618.849 11.7871 618.849 12.0703H617.946C617.946 11.67 618.033 11.3037 618.209 10.9717C618.385 10.6397 618.645 10.376 618.99 10.1807C619.336 9.98213 619.76 9.88284 620.265 9.88284C620.714 9.88284 621.098 9.9626 621.417 10.1221C621.736 10.2784 621.98 10.4997 622.15 10.7862C622.322 11.0694 622.408 11.4014 622.408 11.7823C622.408 11.9906 622.373 12.2022 622.301 12.417C622.233 12.6286 622.137 12.8402 622.013 13.0518C621.892 13.2634 621.751 13.4717 621.588 13.6768C621.429 13.8819 621.258 14.0837 621.075 14.2823L619.171 16.3477H622.736ZM628.361 16.3477V17.0899H623.707V16.4405L626.036 13.8477C626.323 13.5287 626.544 13.2585 626.7 13.0371C626.86 12.8125 626.971 12.6123 627.032 12.4366C627.098 12.2575 627.13 12.0752 627.13 11.8897C627.13 11.6553 627.081 11.4437 626.984 11.2549C626.889 11.0629 626.749 10.9099 626.564 10.7959C626.378 10.682 626.154 10.625 625.89 10.625C625.574 10.625 625.31 10.6869 625.099 10.8106C624.891 10.931 624.734 11.1003 624.63 11.3184C624.526 11.5365 624.474 11.7871 624.474 12.0703H623.571C623.571 11.67 623.658 11.3037 623.834 10.9717C624.01 10.6397 624.27 10.376 624.615 10.1807C624.961 9.98213 625.385 9.88284 625.89 9.88284C626.339 9.88284 626.723 9.9626 627.042 10.1221C627.361 10.2784 627.605 10.4997 627.775 10.7862C627.947 11.0694 628.033 11.4014 628.033 11.7823C628.033 11.9906 627.998 12.2022 627.926 12.417C627.858 12.6286 627.762 12.8402 627.638 13.0518C627.517 13.2634 627.376 13.4717 627.213 13.6768C627.054 13.8819 626.883 14.0837 626.7 14.2823L624.796 16.3477H628.361ZM633.986 16.3477V17.0899H629.332V16.4405L631.661 13.8477C631.948 13.5287 632.169 13.2585 632.325 13.0371C632.485 12.8125 632.596 12.6123 632.657 12.4366C632.723 12.2575 632.755 12.0752 632.755 11.8897C632.755 11.6553 632.706 11.4437 632.609 11.2549C632.514 11.0629 632.374 10.9099 632.189 10.7959C632.003 10.682 631.779 10.625 631.515 10.625C631.199 10.625 630.935 10.6869 630.724 10.8106C630.516 10.931 630.359 11.1003 630.255 11.3184C630.151 11.5365 630.099 11.7871 630.099 12.0703H629.196C629.196 11.67 629.283 11.3037 629.459 10.9717C629.635 10.6397 629.895 10.376 630.24 10.1807C630.586 9.98213 631.01 9.88284 631.515 9.88284C631.964 9.88284 632.348 9.9626 632.667 10.1221C632.986 10.2784 633.23 10.4997 633.4 10.7862C633.572 11.0694 633.658 11.4014 633.658 11.7823C633.658 11.9906 633.623 12.2022 633.551 12.417C633.483 12.6286 633.387 12.8402 633.263 13.0518C633.142 13.2634 633.001 13.4717 632.838 13.6768C632.679 13.8819 632.508 14.0837 632.325 14.2823L630.421 16.3477H633.986ZM637.819 10.6104L635.465 17.0899H634.503L637.213 9.9805H637.833L637.819 10.6104ZM639.791 17.0899L637.433 10.6104L637.418 9.9805H638.038L640.758 17.0899H639.791ZM639.669 14.458V15.2295H635.675V14.458H639.669ZM646.281 14.6973V15.4395H641.144V14.9073L644.327 9.9805H645.065L644.274 11.4063L642.169 14.6973H646.281ZM645.289 9.9805V17.0899H644.386V9.9805H645.289ZM650.07 9.94144V17.0899H649.166V11.0694L647.345 11.7334V10.918L649.928 9.94144H650.07Z" fill="white"/>
<path d="M565.206 167.608C565.206 167.409 565.175 167.233 565.112 167.08C565.054 166.924 564.948 166.784 564.796 166.659C564.647 166.534 564.44 166.414 564.175 166.301C563.913 166.188 563.581 166.073 563.179 165.955C562.757 165.83 562.376 165.692 562.036 165.539C561.696 165.383 561.405 165.205 561.163 165.006C560.921 164.807 560.735 164.578 560.606 164.321C560.477 164.063 560.413 163.768 560.413 163.436C560.413 163.104 560.481 162.797 560.618 162.516C560.755 162.235 560.95 161.991 561.204 161.784C561.462 161.573 561.768 161.409 562.124 161.291C562.479 161.174 562.876 161.116 563.313 161.116C563.954 161.116 564.497 161.239 564.942 161.485C565.391 161.727 565.733 162.045 565.968 162.44C566.202 162.83 566.319 163.248 566.319 163.694H565.194C565.194 163.373 565.126 163.09 564.989 162.844C564.852 162.594 564.645 162.399 564.368 162.258C564.091 162.114 563.739 162.041 563.313 162.041C562.911 162.041 562.579 162.102 562.317 162.223C562.056 162.344 561.86 162.508 561.731 162.715C561.606 162.922 561.544 163.159 561.544 163.424C561.544 163.604 561.581 163.768 561.655 163.916C561.733 164.061 561.852 164.196 562.013 164.321C562.177 164.446 562.384 164.561 562.634 164.666C562.888 164.772 563.19 164.873 563.542 164.971C564.026 165.108 564.444 165.26 564.796 165.428C565.147 165.596 565.436 165.786 565.663 165.996C565.893 166.203 566.063 166.44 566.173 166.705C566.286 166.967 566.343 167.264 566.343 167.596C566.343 167.944 566.272 168.258 566.132 168.539C565.991 168.821 565.79 169.061 565.528 169.26C565.266 169.459 564.952 169.614 564.585 169.723C564.222 169.828 563.815 169.881 563.366 169.881C562.972 169.881 562.583 169.827 562.2 169.717C561.821 169.608 561.475 169.444 561.163 169.225C560.854 169.006 560.606 168.737 560.419 168.416C560.235 168.092 560.143 167.717 560.143 167.291H561.268C561.268 167.584 561.325 167.836 561.438 168.047C561.552 168.254 561.706 168.426 561.901 168.563C562.1 168.7 562.325 168.801 562.575 168.868C562.829 168.93 563.093 168.961 563.366 168.961C563.761 168.961 564.095 168.907 564.368 168.797C564.641 168.688 564.849 168.532 564.989 168.328C565.134 168.125 565.206 167.885 565.206 167.608ZM568.704 164.643V172.202H567.614V163.424H568.61L568.704 164.643ZM572.975 166.541V166.664C572.975 167.125 572.921 167.553 572.811 167.948C572.702 168.338 572.542 168.678 572.331 168.967C572.124 169.256 571.868 169.481 571.563 169.641C571.259 169.801 570.909 169.881 570.515 169.881C570.112 169.881 569.757 169.815 569.448 169.682C569.14 169.549 568.878 169.356 568.663 169.102C568.448 168.848 568.276 168.543 568.147 168.188C568.022 167.832 567.936 167.432 567.89 166.987V166.33C567.936 165.862 568.024 165.442 568.153 165.071C568.282 164.7 568.452 164.383 568.663 164.121C568.878 163.856 569.138 163.655 569.442 163.518C569.747 163.377 570.099 163.307 570.497 163.307C570.895 163.307 571.249 163.385 571.557 163.541C571.866 163.694 572.126 163.912 572.337 164.198C572.548 164.483 572.706 164.825 572.811 165.223C572.921 165.618 572.975 166.057 572.975 166.541ZM571.886 166.664V166.541C571.886 166.225 571.852 165.928 571.786 165.651C571.72 165.37 571.616 165.123 571.475 164.912C571.339 164.698 571.163 164.53 570.948 164.409C570.733 164.284 570.477 164.221 570.181 164.221C569.907 164.221 569.669 164.268 569.466 164.362C569.266 164.455 569.097 164.582 568.956 164.743C568.815 164.899 568.7 165.078 568.61 165.282C568.524 165.481 568.46 165.688 568.417 165.903V167.42C568.495 167.694 568.604 167.952 568.745 168.194C568.886 168.432 569.073 168.625 569.307 168.774C569.542 168.918 569.837 168.991 570.192 168.991C570.485 168.991 570.737 168.93 570.948 168.809C571.163 168.684 571.339 168.514 571.475 168.299C571.616 168.084 571.72 167.838 571.786 167.561C571.852 167.28 571.886 166.981 571.886 166.664ZM578.097 168.68V165.416C578.097 165.166 578.046 164.95 577.944 164.766C577.847 164.578 577.698 164.434 577.499 164.332C577.3 164.231 577.054 164.18 576.761 164.18C576.487 164.18 576.247 164.227 576.04 164.321C575.837 164.414 575.677 164.537 575.559 164.69C575.446 164.842 575.39 165.006 575.39 165.182H574.306C574.306 164.955 574.364 164.731 574.481 164.508C574.599 164.286 574.766 164.084 574.985 163.905C575.208 163.721 575.474 163.577 575.782 163.471C576.095 163.362 576.442 163.307 576.825 163.307C577.286 163.307 577.692 163.385 578.044 163.541C578.399 163.698 578.677 163.934 578.876 164.25C579.079 164.563 579.181 164.955 579.181 165.428V168.381C579.181 168.592 579.198 168.817 579.233 169.055C579.272 169.293 579.329 169.498 579.403 169.67V169.764H578.272C578.218 169.639 578.175 169.473 578.143 169.266C578.112 169.055 578.097 168.86 578.097 168.68ZM578.284 165.92L578.296 166.682H577.2C576.891 166.682 576.616 166.707 576.374 166.758C576.132 166.805 575.929 166.877 575.765 166.975C575.6 167.073 575.475 167.196 575.39 167.344C575.304 167.489 575.261 167.659 575.261 167.854C575.261 168.053 575.306 168.235 575.395 168.399C575.485 168.563 575.62 168.694 575.8 168.791C575.983 168.885 576.208 168.932 576.474 168.932C576.806 168.932 577.099 168.862 577.352 168.721C577.606 168.58 577.807 168.409 577.956 168.205C578.108 168.002 578.19 167.805 578.202 167.614L578.665 168.135C578.638 168.299 578.563 168.481 578.442 168.68C578.321 168.879 578.159 169.071 577.956 169.254C577.757 169.434 577.518 169.584 577.241 169.705C576.968 169.823 576.659 169.881 576.315 169.881C575.886 169.881 575.509 169.797 575.184 169.629C574.864 169.461 574.614 169.237 574.434 168.955C574.259 168.67 574.171 168.352 574.171 168C574.171 167.661 574.237 167.362 574.37 167.104C574.503 166.842 574.694 166.625 574.944 166.453C575.194 166.278 575.495 166.145 575.847 166.055C576.198 165.965 576.591 165.92 577.024 165.92H578.284ZM583.423 168.991C583.681 168.991 583.919 168.938 584.138 168.832C584.356 168.727 584.536 168.582 584.677 168.399C584.817 168.211 584.897 167.998 584.917 167.76H585.948C585.929 168.135 585.802 168.485 585.567 168.809C585.337 169.129 585.034 169.389 584.659 169.588C584.284 169.784 583.872 169.881 583.423 169.881C582.946 169.881 582.53 169.797 582.175 169.629C581.823 169.461 581.53 169.231 581.296 168.938C581.065 168.645 580.891 168.309 580.774 167.93C580.661 167.547 580.604 167.143 580.604 166.717V166.471C580.604 166.045 580.661 165.643 580.774 165.264C580.891 164.881 581.065 164.543 581.296 164.25C581.53 163.957 581.823 163.727 582.175 163.559C582.53 163.391 582.946 163.307 583.423 163.307C583.919 163.307 584.352 163.409 584.724 163.612C585.095 163.811 585.386 164.084 585.597 164.432C585.811 164.776 585.929 165.166 585.948 165.604H584.917C584.897 165.342 584.823 165.106 584.694 164.895C584.569 164.684 584.397 164.516 584.179 164.391C583.964 164.262 583.712 164.198 583.423 164.198C583.091 164.198 582.811 164.264 582.585 164.397C582.362 164.526 582.184 164.702 582.052 164.924C581.923 165.143 581.829 165.387 581.77 165.657C581.716 165.922 581.688 166.194 581.688 166.471V166.717C581.688 166.995 581.716 167.268 581.77 167.537C581.825 167.807 581.917 168.051 582.046 168.27C582.179 168.489 582.356 168.664 582.579 168.797C582.806 168.926 583.087 168.991 583.423 168.991ZM589.798 169.881C589.356 169.881 588.956 169.807 588.597 169.659C588.241 169.506 587.934 169.293 587.677 169.02C587.423 168.746 587.227 168.422 587.091 168.047C586.954 167.672 586.886 167.262 586.886 166.817V166.571C586.886 166.055 586.962 165.596 587.114 165.194C587.266 164.787 587.474 164.444 587.735 164.162C587.997 163.881 588.294 163.668 588.626 163.524C588.958 163.379 589.302 163.307 589.657 163.307C590.11 163.307 590.501 163.385 590.829 163.541C591.161 163.698 591.432 163.916 591.643 164.198C591.854 164.475 592.011 164.803 592.112 165.182C592.214 165.557 592.265 165.967 592.265 166.412V166.899H587.53V166.014H591.181V165.932C591.165 165.651 591.106 165.377 591.005 165.112C590.907 164.846 590.751 164.627 590.536 164.455C590.321 164.284 590.028 164.198 589.657 164.198C589.411 164.198 589.184 164.25 588.977 164.356C588.77 164.457 588.593 164.61 588.444 164.813C588.296 165.016 588.181 165.264 588.099 165.557C588.016 165.85 587.975 166.188 587.975 166.571V166.817C587.975 167.118 588.016 167.401 588.099 167.666C588.184 167.928 588.307 168.159 588.468 168.358C588.632 168.557 588.829 168.713 589.059 168.827C589.294 168.94 589.559 168.996 589.856 168.996C590.239 168.996 590.563 168.918 590.829 168.762C591.095 168.606 591.327 168.397 591.526 168.135L592.182 168.657C592.046 168.864 591.872 169.061 591.661 169.248C591.45 169.436 591.19 169.588 590.882 169.705C590.577 169.823 590.216 169.881 589.798 169.881ZM601.821 167.051H602.946C602.888 167.59 602.733 168.073 602.483 168.498C602.233 168.924 601.88 169.262 601.423 169.512C600.966 169.758 600.395 169.881 599.712 169.881C599.212 169.881 598.757 169.787 598.347 169.6C597.94 169.412 597.591 169.147 597.298 168.803C597.005 168.455 596.778 168.039 596.618 167.555C596.462 167.067 596.384 166.524 596.384 165.926V165.077C596.384 164.479 596.462 163.938 596.618 163.453C596.778 162.965 597.007 162.547 597.304 162.2C597.604 161.852 597.966 161.584 598.388 161.397C598.809 161.209 599.284 161.116 599.811 161.116C600.456 161.116 601.001 161.237 601.446 161.479C601.891 161.721 602.237 162.057 602.483 162.487C602.733 162.912 602.888 163.407 602.946 163.969H601.821C601.766 163.571 601.665 163.229 601.516 162.944C601.368 162.655 601.157 162.432 600.884 162.276C600.61 162.12 600.253 162.041 599.811 162.041C599.432 162.041 599.099 162.114 598.809 162.258C598.524 162.403 598.284 162.608 598.089 162.873C597.897 163.139 597.753 163.457 597.655 163.828C597.557 164.2 597.509 164.612 597.509 165.065V165.926C597.509 166.344 597.552 166.737 597.638 167.104C597.727 167.471 597.862 167.793 598.042 168.071C598.222 168.348 598.45 168.567 598.727 168.727C599.005 168.883 599.333 168.961 599.712 168.961C600.192 168.961 600.575 168.885 600.86 168.733C601.145 168.58 601.36 168.362 601.505 168.077C601.653 167.791 601.759 167.45 601.821 167.051ZM608.061 168.68V165.416C608.061 165.166 608.011 164.95 607.909 164.766C607.811 164.578 607.663 164.434 607.464 164.332C607.265 164.231 607.018 164.18 606.725 164.18C606.452 164.18 606.212 164.227 606.005 164.321C605.802 164.414 605.641 164.537 605.524 164.69C605.411 164.842 605.354 165.006 605.354 165.182H604.27C604.27 164.955 604.329 164.731 604.446 164.508C604.563 164.286 604.731 164.084 604.95 163.905C605.173 163.721 605.438 163.577 605.747 163.471C606.059 163.362 606.407 163.307 606.79 163.307C607.251 163.307 607.657 163.385 608.009 163.541C608.364 163.698 608.641 163.934 608.841 164.25C609.044 164.563 609.145 164.955 609.145 165.428V168.381C609.145 168.592 609.163 168.817 609.198 169.055C609.237 169.293 609.294 169.498 609.368 169.67V169.764H608.237C608.182 169.639 608.14 169.473 608.108 169.266C608.077 169.055 608.061 168.86 608.061 168.68ZM608.249 165.92L608.261 166.682H607.165C606.856 166.682 606.581 166.707 606.339 166.758C606.097 166.805 605.893 166.877 605.729 166.975C605.565 167.073 605.44 167.196 605.354 167.344C605.268 167.489 605.225 167.659 605.225 167.854C605.225 168.053 605.27 168.235 605.36 168.399C605.45 168.563 605.585 168.694 605.765 168.791C605.948 168.885 606.173 168.932 606.438 168.932C606.77 168.932 607.063 168.862 607.317 168.721C607.571 168.58 607.772 168.409 607.921 168.205C608.073 168.002 608.155 167.805 608.167 167.614L608.63 168.135C608.602 168.299 608.528 168.481 608.407 168.68C608.286 168.879 608.124 169.071 607.921 169.254C607.722 169.434 607.483 169.584 607.206 169.705C606.932 169.823 606.624 169.881 606.28 169.881C605.85 169.881 605.474 169.797 605.149 169.629C604.829 169.461 604.579 169.237 604.399 168.955C604.224 168.67 604.136 168.352 604.136 168C604.136 167.661 604.202 167.362 604.335 167.104C604.468 166.842 604.659 166.625 604.909 166.453C605.159 166.278 605.46 166.145 605.811 166.055C606.163 165.965 606.556 165.92 606.989 165.92H608.249ZM614.847 168.534V160.764H615.936V169.764H614.94L614.847 168.534ZM610.581 166.664V166.541C610.581 166.057 610.64 165.618 610.757 165.223C610.878 164.825 611.048 164.483 611.266 164.198C611.489 163.912 611.753 163.694 612.057 163.541C612.366 163.385 612.71 163.307 613.089 163.307C613.487 163.307 613.835 163.377 614.132 163.518C614.432 163.655 614.686 163.856 614.893 164.121C615.104 164.383 615.27 164.7 615.391 165.071C615.513 165.442 615.597 165.862 615.643 166.33V166.87C615.6 167.334 615.516 167.752 615.391 168.123C615.27 168.495 615.104 168.811 614.893 169.073C614.686 169.334 614.432 169.536 614.132 169.676C613.831 169.813 613.479 169.881 613.077 169.881C612.706 169.881 612.366 169.801 612.057 169.641C611.753 169.481 611.489 169.256 611.266 168.967C611.048 168.678 610.878 168.338 610.757 167.948C610.64 167.553 610.581 167.125 610.581 166.664ZM611.671 166.541V166.664C611.671 166.981 611.702 167.278 611.765 167.555C611.831 167.832 611.932 168.077 612.069 168.287C612.206 168.498 612.38 168.664 612.591 168.786C612.802 168.903 613.054 168.961 613.347 168.961C613.706 168.961 614.001 168.885 614.231 168.733C614.466 168.58 614.653 168.379 614.794 168.129C614.934 167.879 615.044 167.608 615.122 167.315V165.903C615.075 165.688 615.007 165.481 614.917 165.282C614.831 165.078 614.718 164.899 614.577 164.743C614.44 164.582 614.27 164.455 614.067 164.362C613.868 164.268 613.632 164.221 613.358 164.221C613.061 164.221 612.806 164.284 612.591 164.409C612.38 164.53 612.206 164.698 612.069 164.912C611.932 165.123 611.831 165.37 611.765 165.651C611.702 165.928 611.671 166.225 611.671 166.541ZM620.255 169.881C619.813 169.881 619.413 169.807 619.054 169.659C618.698 169.506 618.391 169.293 618.134 169.02C617.88 168.746 617.684 168.422 617.548 168.047C617.411 167.672 617.343 167.262 617.343 166.817V166.571C617.343 166.055 617.419 165.596 617.571 165.194C617.724 164.787 617.931 164.444 618.192 164.162C618.454 163.881 618.751 163.668 619.083 163.524C619.415 163.379 619.759 163.307 620.114 163.307C620.567 163.307 620.958 163.385 621.286 163.541C621.618 163.698 621.89 163.916 622.1 164.198C622.311 164.475 622.468 164.803 622.569 165.182C622.671 165.557 622.722 165.967 622.722 166.412V166.899H617.987V166.014H621.638V165.932C621.622 165.651 621.563 165.377 621.462 165.112C621.364 164.846 621.208 164.627 620.993 164.455C620.778 164.284 620.485 164.198 620.114 164.198C619.868 164.198 619.641 164.25 619.434 164.356C619.227 164.457 619.05 164.61 618.901 164.813C618.753 165.016 618.638 165.264 618.556 165.557C618.474 165.85 618.432 166.188 618.432 166.571V166.817C618.432 167.118 618.474 167.401 618.556 167.666C618.641 167.928 618.765 168.159 618.925 168.358C619.089 168.557 619.286 168.713 619.516 168.827C619.751 168.94 620.016 168.996 620.313 168.996C620.696 168.996 621.02 168.918 621.286 168.762C621.552 168.606 621.784 168.397 621.983 168.135L622.64 168.657C622.503 168.864 622.329 169.061 622.118 169.248C621.907 169.436 621.647 169.588 621.339 169.705C621.034 169.823 620.673 169.881 620.255 169.881ZM626.641 163.424V164.256H623.214V163.424H626.641ZM624.374 161.883H625.458V168.194C625.458 168.409 625.491 168.571 625.557 168.68C625.624 168.789 625.71 168.862 625.815 168.897C625.921 168.932 626.034 168.95 626.155 168.95C626.245 168.95 626.339 168.942 626.436 168.926C626.538 168.907 626.614 168.891 626.665 168.879L626.671 169.764C626.585 169.791 626.472 169.817 626.331 169.84C626.194 169.868 626.028 169.881 625.833 169.881C625.567 169.881 625.323 169.828 625.1 169.723C624.878 169.618 624.7 169.442 624.567 169.196C624.438 168.946 624.374 168.61 624.374 168.188V161.883Z" fill="black"/>
<rect x="170.5" y="0.5" width="149" height="151.697" fill="#296663" stroke="black"/>
<rect x="170.5" y="152.185" width="149" height="27.3146" stroke="black"/>
<path d="M272.687 17.0899L274.069 9.9805H274.772L273.385 17.0899H272.687ZM274.674 17.0899L276.061 9.9805H276.759L275.372 17.0899H274.674ZM277.355 12.6905H272.277V12.0117H277.355V12.6905ZM276.989 15.0879H271.906V14.4141H276.989V15.0879ZM282.736 16.3477V17.0899H278.082V16.4405L280.411 13.8477C280.698 13.5287 280.919 13.2585 281.075 13.0371C281.235 12.8125 281.346 12.6123 281.407 12.4366C281.473 12.2575 281.505 12.0752 281.505 11.8897C281.505 11.6553 281.456 11.4437 281.359 11.2549C281.264 11.0629 281.124 10.9099 280.939 10.7959C280.753 10.682 280.529 10.625 280.265 10.625C279.949 10.625 279.685 10.6869 279.474 10.8106C279.266 10.931 279.109 11.1003 279.005 11.3184C278.901 11.5365 278.849 11.7871 278.849 12.0703H277.946C277.946 11.67 278.033 11.3037 278.209 10.9717C278.385 10.6397 278.645 10.376 278.99 10.1807C279.336 9.98213 279.76 9.88284 280.265 9.88284C280.714 9.88284 281.098 9.9626 281.417 10.1221C281.736 10.2784 281.98 10.4997 282.15 10.7862C282.322 11.0694 282.408 11.4014 282.408 11.7823C282.408 11.9906 282.373 12.2022 282.301 12.417C282.233 12.6286 282.137 12.8402 282.013 13.0518C281.892 13.2634 281.751 13.4717 281.588 13.6768C281.429 13.8819 281.258 14.0837 281.075 14.2823L279.171 16.3477H282.736ZM284.601 16.333H284.694C285.214 16.333 285.638 16.2598 285.963 16.1133C286.289 15.9668 286.539 15.7699 286.715 15.5225C286.891 15.2751 287.011 14.9968 287.076 14.6875C287.142 14.375 287.174 14.0544 287.174 13.7256V12.6367C287.174 12.3145 287.137 12.028 287.062 11.7774C286.99 11.5267 286.889 11.3168 286.759 11.1475C286.632 10.9782 286.487 10.8496 286.324 10.7617C286.162 10.6739 285.989 10.6299 285.807 10.6299C285.599 10.6299 285.411 10.6722 285.245 10.7569C285.083 10.8382 284.944 10.9538 284.83 11.1035C284.72 11.2533 284.635 11.4291 284.576 11.6309C284.518 11.8327 284.489 12.0524 284.489 12.2901C284.489 12.5017 284.515 12.7067 284.567 12.9053C284.619 13.1039 284.698 13.2829 284.806 13.4424C284.913 13.6019 285.047 13.7289 285.206 13.8233C285.369 13.9144 285.559 13.96 285.778 13.96C285.979 13.96 286.168 13.9209 286.344 13.8428C286.523 13.7614 286.681 13.6524 286.818 13.5157C286.958 13.3757 287.068 13.2178 287.15 13.042C287.234 12.8662 287.283 12.6823 287.296 12.4903H287.726C287.726 12.7604 287.672 13.0274 287.565 13.291C287.461 13.5515 287.314 13.7891 287.125 14.0039C286.936 14.2188 286.715 14.3913 286.461 14.5215C286.207 14.6485 285.931 14.7119 285.631 14.7119C285.28 14.7119 284.975 14.6436 284.718 14.5069C284.461 14.3701 284.249 14.1879 284.083 13.96C283.92 13.7321 283.798 13.4782 283.717 13.1983C283.639 12.9151 283.6 12.6286 283.6 12.3389C283.6 12.0004 283.647 11.683 283.741 11.3867C283.836 11.0905 283.976 10.8301 284.161 10.6055C284.347 10.3776 284.576 10.2002 284.85 10.0733C285.127 9.94632 285.446 9.88284 285.807 9.88284C286.214 9.88284 286.56 9.96422 286.847 10.127C287.133 10.2897 287.366 10.5078 287.545 10.7813C287.727 11.0547 287.861 11.3623 287.946 11.7041C288.03 12.0459 288.073 12.3975 288.073 12.7588V13.086C288.073 13.4538 288.048 13.8282 287.999 14.209C287.954 14.5866 287.864 14.9479 287.731 15.293C287.601 15.6381 287.41 15.9473 287.159 16.2207C286.909 16.4909 286.582 16.7058 286.178 16.8653C285.778 17.0215 285.283 17.0996 284.694 17.0996H284.601V16.333ZM292.794 9.97073H292.872V10.7373H292.794C292.316 10.7373 291.915 10.8155 291.593 10.9717C291.271 11.1247 291.015 11.3314 290.826 11.5918C290.638 11.849 290.501 12.1387 290.416 12.461C290.335 12.7832 290.294 13.1104 290.294 13.4424V14.4873C290.294 14.8031 290.332 15.083 290.406 15.3272C290.481 15.5681 290.584 15.7715 290.714 15.9375C290.844 16.1035 290.991 16.2289 291.154 16.3135C291.32 16.3981 291.492 16.4405 291.671 16.4405C291.879 16.4405 292.065 16.4014 292.228 16.3233C292.391 16.2419 292.527 16.1296 292.638 15.9864C292.752 15.8399 292.838 15.6673 292.897 15.4688C292.955 15.2702 292.985 15.0521 292.985 14.8145C292.985 14.6029 292.959 14.3994 292.906 14.2041C292.854 14.0056 292.775 13.8298 292.667 13.6768C292.56 13.5205 292.425 13.3985 292.262 13.3106C292.102 13.2194 291.912 13.1739 291.691 13.1739C291.44 13.1739 291.206 13.2357 290.988 13.3594C290.773 13.4798 290.595 13.6394 290.455 13.8379C290.319 14.0332 290.24 14.2464 290.221 14.4776L289.742 14.4727C289.788 14.1081 289.873 13.7972 289.996 13.5401C290.123 13.2797 290.28 13.0681 290.465 12.9053C290.654 12.7393 290.864 12.6188 291.095 12.544C291.329 12.4659 291.577 12.4268 291.837 12.4268C292.192 12.4268 292.498 12.4935 292.755 12.627C293.012 12.7604 293.224 12.9395 293.39 13.1641C293.556 13.3854 293.678 13.6361 293.756 13.916C293.837 14.1927 293.878 14.4776 293.878 14.7705C293.878 15.1058 293.831 15.42 293.737 15.7129C293.642 16.0059 293.501 16.2631 293.312 16.4844C293.126 16.7058 292.897 16.8783 292.623 17.002C292.35 17.1257 292.032 17.1875 291.671 17.1875C291.287 17.1875 290.952 17.1094 290.665 16.9532C290.379 16.7937 290.141 16.5821 289.952 16.3184C289.764 16.0547 289.622 15.7617 289.528 15.4395C289.433 15.1172 289.386 14.7901 289.386 14.458V14.0332C289.386 13.5319 289.436 13.0404 289.537 12.5586C289.638 12.0769 289.812 11.6407 290.06 11.25C290.31 10.8594 290.657 10.5485 291.1 10.3174C291.543 10.0863 292.107 9.97073 292.794 9.97073ZM298.419 9.97073H298.497V10.7373H298.419C297.941 10.7373 297.54 10.8155 297.218 10.9717C296.896 11.1247 296.64 11.3314 296.451 11.5918C296.263 11.849 296.126 12.1387 296.041 12.461C295.96 12.7832 295.919 13.1104 295.919 13.4424V14.4873C295.919 14.8031 295.957 15.083 296.031 15.3272C296.106 15.5681 296.209 15.7715 296.339 15.9375C296.469 16.1035 296.616 16.2289 296.779 16.3135C296.945 16.3981 297.117 16.4405 297.296 16.4405C297.504 16.4405 297.69 16.4014 297.853 16.3233C298.016 16.2419 298.152 16.1296 298.263 15.9864C298.377 15.8399 298.463 15.6673 298.522 15.4688C298.58 15.2702 298.61 15.0521 298.61 14.8145C298.61 14.6029 298.584 14.3994 298.531 14.2041C298.479 14.0056 298.4 13.8298 298.292 13.6768C298.185 13.5205 298.05 13.3985 297.887 13.3106C297.727 13.2194 297.537 13.1739 297.316 13.1739C297.065 13.1739 296.831 13.2357 296.613 13.3594C296.398 13.4798 296.22 13.6394 296.08 13.8379C295.944 14.0332 295.865 14.2464 295.846 14.4776L295.367 14.4727C295.413 14.1081 295.498 13.7972 295.621 13.5401C295.748 13.2797 295.905 13.0681 296.09 12.9053C296.279 12.7393 296.489 12.6188 296.72 12.544C296.954 12.4659 297.202 12.4268 297.462 12.4268C297.817 12.4268 298.123 12.4935 298.38 12.627C298.637 12.7604 298.849 12.9395 299.015 13.1641C299.181 13.3854 299.303 13.6361 299.381 13.916C299.462 14.1927 299.503 14.4776 299.503 14.7705C299.503 15.1058 299.456 15.42 299.362 15.7129C299.267 16.0059 299.126 16.2631 298.937 16.4844C298.751 16.7058 298.522 16.8783 298.248 17.002C297.975 17.1257 297.657 17.1875 297.296 17.1875C296.912 17.1875 296.577 17.1094 296.29 16.9532C296.004 16.7937 295.766 16.5821 295.577 16.3184C295.389 16.0547 295.247 15.7617 295.153 15.4395C295.058 15.1172 295.011 14.7901 295.011 14.458V14.0332C295.011 13.5319 295.061 13.0404 295.162 12.5586C295.263 12.0769 295.437 11.6407 295.685 11.25C295.935 10.8594 296.282 10.5485 296.725 10.3174C297.168 10.0863 297.732 9.97073 298.419 9.97073ZM304.044 9.97073H304.122V10.7373H304.044C303.566 10.7373 303.165 10.8155 302.843 10.9717C302.521 11.1247 302.265 11.3314 302.076 11.5918C301.888 11.849 301.751 12.1387 301.666 12.461C301.585 12.7832 301.544 13.1104 301.544 13.4424V14.4873C301.544 14.8031 301.582 15.083 301.656 15.3272C301.731 15.5681 301.834 15.7715 301.964 15.9375C302.094 16.1035 302.241 16.2289 302.404 16.3135C302.57 16.3981 302.742 16.4405 302.921 16.4405C303.129 16.4405 303.315 16.4014 303.478 16.3233C303.641 16.2419 303.777 16.1296 303.888 15.9864C304.002 15.8399 304.088 15.6673 304.147 15.4688C304.205 15.2702 304.235 15.0521 304.235 14.8145C304.235 14.6029 304.209 14.3994 304.156 14.2041C304.104 14.0056 304.025 13.8298 303.917 13.6768C303.81 13.5205 303.675 13.3985 303.512 13.3106C303.352 13.2194 303.162 13.1739 302.941 13.1739C302.69 13.1739 302.456 13.2357 302.238 13.3594C302.023 13.4798 301.845 13.6394 301.705 13.8379C301.569 14.0332 301.49 14.2464 301.471 14.4776L300.992 14.4727C301.038 14.1081 301.123 13.7972 301.246 13.5401C301.373 13.2797 301.53 13.0681 301.715 12.9053C301.904 12.7393 302.114 12.6188 302.345 12.544C302.579 12.4659 302.827 12.4268 303.087 12.4268C303.442 12.4268 303.748 12.4935 304.005 12.627C304.262 12.7604 304.474 12.9395 304.64 13.1641C304.806 13.3854 304.928 13.6361 305.006 13.916C305.087 14.1927 305.128 14.4776 305.128 14.7705C305.128 15.1058 305.081 15.42 304.987 15.7129C304.892 16.0059 304.751 16.2631 304.562 16.4844C304.376 16.7058 304.147 16.8783 303.873 17.002C303.6 17.1257 303.282 17.1875 302.921 17.1875C302.537 17.1875 302.202 17.1094 301.915 16.9532C301.629 16.7937 301.391 16.5821 301.202 16.3184C301.014 16.0547 300.872 15.7617 300.778 15.4395C300.683 15.1172 300.636 14.7901 300.636 14.458V14.0332C300.636 13.5319 300.686 13.0404 300.787 12.5586C300.888 12.0769 301.062 11.6407 301.31 11.25C301.56 10.8594 301.907 10.5485 302.35 10.3174C302.793 10.0863 303.357 9.97073 304.044 9.97073ZM307.521 13.0909H308.165C308.481 13.0909 308.741 13.0388 308.947 12.9346C309.155 12.8272 309.309 12.6823 309.41 12.5C309.515 12.3145 309.567 12.1062 309.567 11.875C309.567 11.6016 309.521 11.3721 309.43 11.1866C309.339 11.001 309.202 10.861 309.02 10.7666C308.837 10.6722 308.606 10.625 308.326 10.625C308.073 10.625 307.848 10.6755 307.653 10.7764C307.461 10.8741 307.309 11.014 307.198 11.1963C307.091 11.3786 307.037 11.5935 307.037 11.8409H306.134C306.134 11.4795 306.225 11.1507 306.407 10.8545C306.59 10.5583 306.845 10.3223 307.174 10.1465C307.506 9.97073 307.89 9.88284 308.326 9.88284C308.756 9.88284 309.132 9.95934 309.454 10.1123C309.777 10.2621 310.027 10.4867 310.206 10.7862C310.385 11.0824 310.475 11.4519 310.475 11.8946C310.475 12.0736 310.433 12.2657 310.348 12.4707C310.267 12.6726 310.138 12.8614 309.962 13.0371C309.79 13.2129 309.565 13.3578 309.288 13.4717C309.012 13.5824 308.68 13.6377 308.292 13.6377H307.521V13.0909ZM307.521 13.833V13.291H308.292C308.745 13.291 309.119 13.3448 309.415 13.4522C309.712 13.5596 309.944 13.7028 310.114 13.8819C310.286 14.0609 310.406 14.2578 310.475 14.4727C310.546 14.6843 310.582 14.8959 310.582 15.1075C310.582 15.4395 310.525 15.7341 310.411 15.9912C310.301 16.2484 310.143 16.4665 309.938 16.6455C309.736 16.8246 309.498 16.9597 309.225 17.0508C308.951 17.142 308.654 17.1875 308.331 17.1875C308.022 17.1875 307.731 17.1436 307.457 17.0557C307.187 16.9678 306.948 16.8409 306.74 16.6748C306.531 16.5056 306.368 16.2989 306.251 16.0547C306.134 15.8073 306.075 15.5257 306.075 15.21H306.979C306.979 15.4574 307.032 15.6739 307.14 15.8594C307.251 16.045 307.407 16.1898 307.609 16.294C307.814 16.3949 308.055 16.4453 308.331 16.4453C308.608 16.4453 308.846 16.3981 309.044 16.3037C309.246 16.2061 309.401 16.0596 309.508 15.8643C309.619 15.669 309.674 15.4232 309.674 15.127C309.674 14.8308 309.612 14.5882 309.489 14.3994C309.365 14.2074 309.189 14.0658 308.961 13.9746C308.737 13.8802 308.471 13.833 308.165 13.833H307.521Z" fill="white"/>
<path d="M202.962 167.051H204.087C204.028 167.59 203.874 168.073 203.624 168.498C203.374 168.924 203.02 169.262 202.563 169.512C202.106 169.758 201.536 169.881 200.852 169.881C200.352 169.881 199.897 169.787 199.487 169.6C199.081 169.412 198.731 169.147 198.438 168.803C198.145 168.455 197.919 168.039 197.759 167.555C197.602 167.067 197.524 166.524 197.524 165.926V165.077C197.524 164.479 197.602 163.938 197.759 163.453C197.919 162.965 198.147 162.547 198.444 162.2C198.745 161.852 199.106 161.584 199.528 161.397C199.95 161.209 200.425 161.116 200.952 161.116C201.597 161.116 202.141 161.237 202.587 161.479C203.032 161.721 203.378 162.057 203.624 162.487C203.874 162.912 204.028 163.407 204.087 163.969H202.962C202.907 163.571 202.806 163.229 202.657 162.944C202.509 162.655 202.298 162.432 202.024 162.276C201.751 162.12 201.393 162.041 200.952 162.041C200.573 162.041 200.239 162.114 199.95 162.258C199.665 162.403 199.425 162.608 199.229 162.873C199.038 163.139 198.893 163.457 198.796 163.828C198.698 164.2 198.649 164.612 198.649 165.065V165.926C198.649 166.344 198.692 166.737 198.778 167.104C198.868 167.471 199.003 167.793 199.182 168.071C199.362 168.348 199.591 168.567 199.868 168.727C200.145 168.883 200.474 168.961 200.852 168.961C201.333 168.961 201.716 168.885 202.001 168.733C202.286 168.58 202.501 168.362 202.645 168.077C202.794 167.791 202.899 167.45 202.962 167.051ZM209.202 168.68V165.416C209.202 165.166 209.151 164.95 209.05 164.766C208.952 164.578 208.804 164.434 208.604 164.332C208.405 164.231 208.159 164.18 207.866 164.18C207.593 164.18 207.352 164.227 207.145 164.321C206.942 164.414 206.782 164.537 206.665 164.69C206.552 164.842 206.495 165.006 206.495 165.182H205.411C205.411 164.955 205.47 164.731 205.587 164.508C205.704 164.286 205.872 164.084 206.091 163.905C206.313 163.721 206.579 163.577 206.888 163.471C207.2 163.362 207.548 163.307 207.931 163.307C208.391 163.307 208.798 163.385 209.149 163.541C209.505 163.698 209.782 163.934 209.981 164.25C210.184 164.563 210.286 164.955 210.286 165.428V168.381C210.286 168.592 210.304 168.817 210.339 169.055C210.378 169.293 210.434 169.498 210.509 169.67V169.764H209.378C209.323 169.639 209.28 169.473 209.249 169.266C209.218 169.055 209.202 168.86 209.202 168.68ZM209.39 165.92L209.401 166.682H208.306C207.997 166.682 207.722 166.707 207.479 166.758C207.237 166.805 207.034 166.877 206.87 166.975C206.706 167.073 206.581 167.196 206.495 167.344C206.409 167.489 206.366 167.659 206.366 167.854C206.366 168.053 206.411 168.235 206.501 168.399C206.591 168.563 206.725 168.694 206.905 168.791C207.089 168.885 207.313 168.932 207.579 168.932C207.911 168.932 208.204 168.862 208.458 168.721C208.712 168.58 208.913 168.409 209.061 168.205C209.214 168.002 209.296 167.805 209.307 167.614L209.77 168.135C209.743 168.299 209.669 168.481 209.548 168.68C209.427 168.879 209.265 169.071 209.061 169.254C208.862 169.434 208.624 169.584 208.347 169.705C208.073 169.823 207.765 169.881 207.421 169.881C206.991 169.881 206.614 169.797 206.29 169.629C205.97 169.461 205.72 169.237 205.54 168.955C205.364 168.67 205.276 168.352 205.276 168C205.276 167.661 205.343 167.362 205.475 167.104C205.608 166.842 205.8 166.625 206.05 166.453C206.3 166.278 206.6 166.145 206.952 166.055C207.304 165.965 207.696 165.92 208.13 165.92H209.39ZM213.075 164.42V169.764H211.991V163.424H213.046L213.075 164.42ZM215.056 163.389L215.05 164.397C214.96 164.377 214.874 164.366 214.792 164.362C214.714 164.354 214.624 164.35 214.522 164.35C214.272 164.35 214.052 164.389 213.86 164.467C213.669 164.545 213.507 164.655 213.374 164.795C213.241 164.936 213.136 165.104 213.057 165.299C212.983 165.491 212.934 165.702 212.911 165.932L212.606 166.108C212.606 165.725 212.643 165.366 212.718 165.03C212.796 164.694 212.915 164.397 213.075 164.139C213.235 163.877 213.438 163.674 213.684 163.53C213.934 163.381 214.231 163.307 214.575 163.307C214.653 163.307 214.743 163.317 214.845 163.336C214.946 163.352 215.016 163.37 215.056 163.389ZM217.235 163.424V169.764H216.145V163.424H217.235ZM216.063 161.743C216.063 161.567 216.116 161.418 216.222 161.297C216.331 161.176 216.491 161.116 216.702 161.116C216.909 161.116 217.067 161.176 217.177 161.297C217.29 161.418 217.347 161.567 217.347 161.743C217.347 161.911 217.29 162.055 217.177 162.176C217.067 162.293 216.909 162.352 216.702 162.352C216.491 162.352 216.331 162.293 216.222 162.176C216.116 162.055 216.063 161.911 216.063 161.743ZM218.97 160.764H220.059V168.534L219.966 169.764H218.97V160.764ZM224.343 166.541V166.664C224.343 167.125 224.288 167.553 224.179 167.948C224.069 168.338 223.909 168.678 223.698 168.967C223.487 169.256 223.229 169.481 222.925 169.641C222.62 169.801 222.27 169.881 221.876 169.881C221.474 169.881 221.12 169.813 220.815 169.676C220.515 169.536 220.261 169.334 220.054 169.073C219.847 168.811 219.681 168.495 219.556 168.123C219.434 167.752 219.35 167.334 219.304 166.87V166.33C219.35 165.862 219.434 165.442 219.556 165.071C219.681 164.7 219.847 164.383 220.054 164.121C220.261 163.856 220.515 163.655 220.815 163.518C221.116 163.377 221.466 163.307 221.864 163.307C222.263 163.307 222.616 163.385 222.925 163.541C223.233 163.694 223.491 163.912 223.698 164.198C223.909 164.483 224.069 164.825 224.179 165.223C224.288 165.618 224.343 166.057 224.343 166.541ZM223.253 166.664V166.541C223.253 166.225 223.224 165.928 223.165 165.651C223.106 165.37 223.013 165.123 222.884 164.912C222.755 164.698 222.585 164.53 222.374 164.409C222.163 164.284 221.903 164.221 221.595 164.221C221.321 164.221 221.083 164.268 220.88 164.362C220.681 164.455 220.511 164.582 220.37 164.743C220.229 164.899 220.114 165.078 220.024 165.282C219.938 165.481 219.874 165.688 219.831 165.903V167.315C219.893 167.588 219.995 167.852 220.136 168.106C220.28 168.356 220.472 168.561 220.71 168.721C220.952 168.881 221.251 168.961 221.606 168.961C221.899 168.961 222.149 168.903 222.356 168.786C222.567 168.664 222.737 168.498 222.866 168.287C222.999 168.077 223.097 167.832 223.159 167.555C223.222 167.278 223.253 166.981 223.253 166.664ZM225.708 160.764H226.798V168.534L226.704 169.764H225.708V160.764ZM231.081 166.541V166.664C231.081 167.125 231.026 167.553 230.917 167.948C230.807 168.338 230.647 168.678 230.436 168.967C230.225 169.256 229.968 169.481 229.663 169.641C229.358 169.801 229.009 169.881 228.614 169.881C228.212 169.881 227.858 169.813 227.554 169.676C227.253 169.536 226.999 169.334 226.792 169.073C226.585 168.811 226.419 168.495 226.294 168.123C226.173 167.752 226.089 167.334 226.042 166.87V166.33C226.089 165.862 226.173 165.442 226.294 165.071C226.419 164.7 226.585 164.383 226.792 164.121C226.999 163.856 227.253 163.655 227.554 163.518C227.854 163.377 228.204 163.307 228.602 163.307C229.001 163.307 229.354 163.385 229.663 163.541C229.972 163.694 230.229 163.912 230.436 164.198C230.647 164.483 230.807 164.825 230.917 165.223C231.026 165.618 231.081 166.057 231.081 166.541ZM229.991 166.664V166.541C229.991 166.225 229.962 165.928 229.903 165.651C229.845 165.37 229.751 165.123 229.622 164.912C229.493 164.698 229.323 164.53 229.112 164.409C228.901 164.284 228.641 164.221 228.333 164.221C228.059 164.221 227.821 164.268 227.618 164.362C227.419 164.455 227.249 164.582 227.108 164.743C226.968 164.899 226.852 165.078 226.763 165.282C226.677 165.481 226.612 165.688 226.569 165.903V167.315C226.632 167.588 226.733 167.852 226.874 168.106C227.018 168.356 227.21 168.561 227.448 168.721C227.69 168.881 227.989 168.961 228.345 168.961C228.638 168.961 228.888 168.903 229.095 168.786C229.306 168.664 229.475 168.498 229.604 168.287C229.737 168.077 229.835 167.832 229.897 167.555C229.96 167.278 229.991 166.981 229.991 166.664ZM235.083 169.881C234.641 169.881 234.241 169.807 233.882 169.659C233.526 169.506 233.22 169.293 232.962 169.02C232.708 168.746 232.513 168.422 232.376 168.047C232.239 167.672 232.171 167.262 232.171 166.817V166.571C232.171 166.055 232.247 165.596 232.399 165.194C232.552 164.787 232.759 164.444 233.02 164.162C233.282 163.881 233.579 163.668 233.911 163.524C234.243 163.379 234.587 163.307 234.942 163.307C235.395 163.307 235.786 163.385 236.114 163.541C236.446 163.698 236.718 163.916 236.929 164.198C237.14 164.475 237.296 164.803 237.397 165.182C237.499 165.557 237.55 165.967 237.55 166.412V166.899H232.815V166.014H236.466V165.932C236.45 165.651 236.391 165.377 236.29 165.112C236.192 164.846 236.036 164.627 235.821 164.455C235.606 164.284 235.313 164.198 234.942 164.198C234.696 164.198 234.47 164.25 234.263 164.356C234.056 164.457 233.878 164.61 233.729 164.813C233.581 165.016 233.466 165.264 233.384 165.557C233.302 165.85 233.261 166.188 233.261 166.571V166.817C233.261 167.118 233.302 167.401 233.384 167.666C233.47 167.928 233.593 168.159 233.753 168.358C233.917 168.557 234.114 168.713 234.345 168.827C234.579 168.94 234.845 168.996 235.141 168.996C235.524 168.996 235.849 168.918 236.114 168.762C236.38 168.606 236.612 168.397 236.811 168.135L237.468 168.657C237.331 168.864 237.157 169.061 236.946 169.248C236.735 169.436 236.475 169.588 236.167 169.705C235.862 169.823 235.501 169.881 235.083 169.881ZM242.554 168.68V165.416C242.554 165.166 242.503 164.95 242.401 164.766C242.304 164.578 242.155 164.434 241.956 164.332C241.757 164.231 241.511 164.18 241.218 164.18C240.944 164.18 240.704 164.227 240.497 164.321C240.294 164.414 240.134 164.537 240.016 164.69C239.903 164.842 239.847 165.006 239.847 165.182H238.763C238.763 164.955 238.821 164.731 238.938 164.508C239.056 164.286 239.224 164.084 239.442 163.905C239.665 163.721 239.931 163.577 240.239 163.471C240.552 163.362 240.899 163.307 241.282 163.307C241.743 163.307 242.149 163.385 242.501 163.541C242.856 163.698 243.134 163.934 243.333 164.25C243.536 164.563 243.638 164.955 243.638 165.428V168.381C243.638 168.592 243.655 168.817 243.69 169.055C243.729 169.293 243.786 169.498 243.86 169.67V169.764H242.729C242.675 169.639 242.632 169.473 242.6 169.266C242.569 169.055 242.554 168.86 242.554 168.68ZM242.741 165.92L242.753 166.682H241.657C241.349 166.682 241.073 166.707 240.831 166.758C240.589 166.805 240.386 166.877 240.222 166.975C240.057 167.073 239.932 167.196 239.847 167.344C239.761 167.489 239.718 167.659 239.718 167.854C239.718 168.053 239.763 168.235 239.852 168.399C239.942 168.563 240.077 168.694 240.257 168.791C240.44 168.885 240.665 168.932 240.931 168.932C241.263 168.932 241.556 168.862 241.809 168.721C242.063 168.58 242.265 168.409 242.413 168.205C242.565 168.002 242.647 167.805 242.659 167.614L243.122 168.135C243.095 168.299 243.02 168.481 242.899 168.68C242.778 168.879 242.616 169.071 242.413 169.254C242.214 169.434 241.975 169.584 241.698 169.705C241.425 169.823 241.116 169.881 240.772 169.881C240.343 169.881 239.966 169.797 239.641 169.629C239.321 169.461 239.071 169.237 238.891 168.955C238.716 168.67 238.628 168.352 238.628 168C238.628 167.661 238.694 167.362 238.827 167.104C238.96 166.842 239.151 166.625 239.401 166.453C239.651 166.278 239.952 166.145 240.304 166.055C240.655 165.965 241.048 165.92 241.481 165.92H242.741ZM246.427 164.778V169.764H245.343V163.424H246.368L246.427 164.778ZM246.169 166.354L245.718 166.336C245.722 165.903 245.786 165.502 245.911 165.135C246.036 164.764 246.212 164.442 246.438 164.168C246.665 163.895 246.934 163.684 247.247 163.536C247.563 163.383 247.913 163.307 248.296 163.307C248.608 163.307 248.89 163.35 249.14 163.436C249.39 163.518 249.602 163.651 249.778 163.834C249.958 164.018 250.095 164.256 250.188 164.549C250.282 164.838 250.329 165.192 250.329 165.61V169.764H249.239V165.598C249.239 165.266 249.19 165 249.093 164.801C248.995 164.598 248.852 164.452 248.665 164.362C248.477 164.268 248.247 164.221 247.974 164.221C247.704 164.221 247.458 164.278 247.235 164.391C247.016 164.504 246.827 164.661 246.667 164.86C246.511 165.059 246.388 165.287 246.298 165.545C246.212 165.799 246.169 166.069 246.169 166.354ZM260.266 167.051H261.391C261.333 167.59 261.179 168.073 260.929 168.498C260.679 168.924 260.325 169.262 259.868 169.512C259.411 169.758 258.841 169.881 258.157 169.881C257.657 169.881 257.202 169.787 256.792 169.6C256.386 169.412 256.036 169.147 255.743 168.803C255.45 168.455 255.224 168.039 255.063 167.555C254.907 167.067 254.829 166.524 254.829 165.926V165.077C254.829 164.479 254.907 163.938 255.063 163.453C255.224 162.965 255.452 162.547 255.749 162.2C256.05 161.852 256.411 161.584 256.833 161.397C257.255 161.209 257.729 161.116 258.257 161.116C258.901 161.116 259.446 161.237 259.891 161.479C260.337 161.721 260.682 162.057 260.929 162.487C261.179 162.912 261.333 163.407 261.391 163.969H260.266C260.212 163.571 260.11 163.229 259.962 162.944C259.813 162.655 259.602 162.432 259.329 162.276C259.056 162.12 258.698 162.041 258.257 162.041C257.878 162.041 257.544 162.114 257.255 162.258C256.97 162.403 256.729 162.608 256.534 162.873C256.343 163.139 256.198 163.457 256.1 163.828C256.003 164.2 255.954 164.612 255.954 165.065V165.926C255.954 166.344 255.997 166.737 256.083 167.104C256.173 167.471 256.307 167.793 256.487 168.071C256.667 168.348 256.895 168.567 257.173 168.727C257.45 168.883 257.778 168.961 258.157 168.961C258.638 168.961 259.02 168.885 259.306 168.733C259.591 168.58 259.806 168.362 259.95 168.077C260.099 167.791 260.204 167.45 260.266 167.051ZM266.647 168.299V163.424H267.737V169.764H266.7L266.647 168.299ZM266.852 166.963L267.304 166.952C267.304 167.373 267.259 167.764 267.169 168.123C267.083 168.479 266.942 168.787 266.747 169.049C266.552 169.311 266.296 169.516 265.979 169.664C265.663 169.809 265.278 169.881 264.825 169.881C264.516 169.881 264.233 169.836 263.975 169.746C263.722 169.657 263.503 169.518 263.319 169.33C263.136 169.143 262.993 168.899 262.891 168.598C262.794 168.297 262.745 167.936 262.745 167.514V163.424H263.829V167.526C263.829 167.811 263.86 168.047 263.923 168.235C263.989 168.418 264.077 168.565 264.186 168.674C264.3 168.78 264.425 168.854 264.561 168.897C264.702 168.94 264.847 168.961 264.995 168.961C265.456 168.961 265.821 168.873 266.091 168.698C266.36 168.518 266.554 168.278 266.671 167.977C266.792 167.672 266.852 167.334 266.852 166.963ZM270.474 164.42V169.764H269.39V163.424H270.444L270.474 164.42ZM272.454 163.389L272.448 164.397C272.358 164.377 272.272 164.366 272.19 164.362C272.112 164.354 272.022 164.35 271.921 164.35C271.671 164.35 271.45 164.389 271.259 164.467C271.067 164.545 270.905 164.655 270.772 164.795C270.64 164.936 270.534 165.104 270.456 165.299C270.382 165.491 270.333 165.702 270.309 165.932L270.005 166.108C270.005 165.725 270.042 165.366 270.116 165.03C270.194 164.694 270.313 164.397 270.474 164.139C270.634 163.877 270.837 163.674 271.083 163.53C271.333 163.381 271.63 163.307 271.974 163.307C272.052 163.307 272.141 163.317 272.243 163.336C272.345 163.352 272.415 163.37 272.454 163.389ZM274.54 164.42V169.764H273.456V163.424H274.511L274.54 164.42ZM276.52 163.389L276.515 164.397C276.425 164.377 276.339 164.366 276.257 164.362C276.179 164.354 276.089 164.35 275.987 164.35C275.737 164.35 275.516 164.389 275.325 164.467C275.134 164.545 274.972 164.655 274.839 164.795C274.706 164.936 274.6 165.104 274.522 165.299C274.448 165.491 274.399 165.702 274.376 165.932L274.071 166.108C274.071 165.725 274.108 165.366 274.182 165.03C274.261 164.694 274.38 164.397 274.54 164.139C274.7 163.877 274.903 163.674 275.149 163.53C275.399 163.381 275.696 163.307 276.04 163.307C276.118 163.307 276.208 163.317 276.309 163.336C276.411 163.352 276.481 163.37 276.52 163.389ZM280.036 169.881C279.595 169.881 279.194 169.807 278.835 169.659C278.479 169.506 278.173 169.293 277.915 169.02C277.661 168.746 277.466 168.422 277.329 168.047C277.192 167.672 277.124 167.262 277.124 166.817V166.571C277.124 166.055 277.2 165.596 277.352 165.194C277.505 164.787 277.712 164.444 277.974 164.162C278.235 163.881 278.532 163.668 278.864 163.524C279.196 163.379 279.54 163.307 279.895 163.307C280.349 163.307 280.739 163.385 281.067 163.541C281.399 163.698 281.671 163.916 281.882 164.198C282.093 164.475 282.249 164.803 282.35 165.182C282.452 165.557 282.503 165.967 282.503 166.412V166.899H277.768V166.014H281.419V165.932C281.403 165.651 281.345 165.377 281.243 165.112C281.145 164.846 280.989 164.627 280.774 164.455C280.559 164.284 280.266 164.198 279.895 164.198C279.649 164.198 279.423 164.25 279.216 164.356C279.009 164.457 278.831 164.61 278.682 164.813C278.534 165.016 278.419 165.264 278.337 165.557C278.255 165.85 278.214 166.188 278.214 166.571V166.817C278.214 167.118 278.255 167.401 278.337 167.666C278.423 167.928 278.546 168.159 278.706 168.358C278.87 168.557 279.067 168.713 279.298 168.827C279.532 168.94 279.798 168.996 280.095 168.996C280.477 168.996 280.802 168.918 281.067 168.762C281.333 168.606 281.565 168.397 281.765 168.135L282.421 168.657C282.284 168.864 282.11 169.061 281.899 169.248C281.688 169.436 281.429 169.588 281.12 169.705C280.815 169.823 280.454 169.881 280.036 169.881ZM284.852 164.778V169.764H283.768V163.424H284.794L284.852 164.778ZM284.595 166.354L284.143 166.336C284.147 165.903 284.212 165.502 284.337 165.135C284.462 164.764 284.638 164.442 284.864 164.168C285.091 163.895 285.36 163.684 285.673 163.536C285.989 163.383 286.339 163.307 286.722 163.307C287.034 163.307 287.315 163.35 287.565 163.436C287.815 163.518 288.028 163.651 288.204 163.834C288.384 164.018 288.52 164.256 288.614 164.549C288.708 164.838 288.755 165.192 288.755 165.61V169.764H287.665V165.598C287.665 165.266 287.616 165 287.518 164.801C287.421 164.598 287.278 164.452 287.091 164.362C286.903 164.268 286.673 164.221 286.399 164.221C286.13 164.221 285.884 164.278 285.661 164.391C285.442 164.504 285.253 164.661 285.093 164.86C284.936 165.059 284.813 165.287 284.724 165.545C284.638 165.799 284.595 166.069 284.595 166.354ZM293.056 163.424V164.256H289.628V163.424H293.056ZM290.788 161.883H291.872V168.194C291.872 168.409 291.905 168.571 291.972 168.68C292.038 168.789 292.124 168.862 292.229 168.897C292.335 168.932 292.448 168.95 292.569 168.95C292.659 168.95 292.753 168.942 292.85 168.926C292.952 168.907 293.028 168.891 293.079 168.879L293.085 169.764C292.999 169.791 292.886 169.817 292.745 169.84C292.608 169.868 292.442 169.881 292.247 169.881C291.981 169.881 291.737 169.828 291.515 169.723C291.292 169.618 291.114 169.442 290.981 169.196C290.852 168.946 290.788 168.61 290.788 168.188V161.883Z" fill="black"/>
<rect x="0.5" y="0.5" width="149" height="151.697" fill="#E9B6C4" stroke="black"/>
<rect x="0.5" y="152.185" width="149" height="27.3146" stroke="black"/>
<path d="M102.687 17.0899L104.069 9.9805H104.772L103.385 17.0899H102.687ZM104.674 17.0899L106.061 9.9805H106.759L105.372 17.0899H104.674ZM107.355 12.6905H102.277V12.0117H107.355V12.6905ZM106.989 15.0879H101.906V14.4141H106.989V15.0879ZM112.828 16.3233V17.0899H109.064V16.3233H112.828ZM109.254 9.9805V17.0899H108.312V9.9805H109.254ZM112.33 13.0371V13.8037H109.064V13.0371H112.33ZM112.78 9.9805V10.752H109.064V9.9805H112.78ZM114.659 16.333H114.752C115.273 16.333 115.696 16.2598 116.022 16.1133C116.347 15.9668 116.598 15.7699 116.774 15.5225C116.949 15.2751 117.07 14.9968 117.135 14.6875C117.2 14.375 117.233 14.0544 117.233 13.7256V12.6367C117.233 12.3145 117.195 12.028 117.12 11.7774C117.049 11.5267 116.948 11.3168 116.818 11.1475C116.691 10.9782 116.546 10.8496 116.383 10.7617C116.22 10.6739 116.048 10.6299 115.865 10.6299C115.657 10.6299 115.47 10.6722 115.304 10.7569C115.141 10.8382 115.003 10.9538 114.889 11.1035C114.778 11.2533 114.694 11.4291 114.635 11.6309C114.576 11.8327 114.547 12.0524 114.547 12.2901C114.547 12.5017 114.573 12.7067 114.625 12.9053C114.677 13.1039 114.757 13.2829 114.865 13.4424C114.972 13.6019 115.105 13.7289 115.265 13.8233C115.428 13.9144 115.618 13.96 115.836 13.96C116.038 13.96 116.227 13.9209 116.403 13.8428C116.582 13.7614 116.74 13.6524 116.876 13.5157C117.016 13.3757 117.127 13.2178 117.208 13.042C117.293 12.8662 117.342 12.6823 117.355 12.4903H117.784C117.784 12.7604 117.731 13.0274 117.623 13.291C117.519 13.5515 117.373 13.7891 117.184 14.0039C116.995 14.2188 116.774 14.3913 116.52 14.5215C116.266 14.6485 115.989 14.7119 115.69 14.7119C115.338 14.7119 115.034 14.6436 114.777 14.5069C114.519 14.3701 114.308 14.1879 114.142 13.96C113.979 13.7321 113.857 13.4782 113.776 13.1983C113.698 12.9151 113.658 12.6286 113.658 12.3389C113.658 12.0004 113.706 11.683 113.8 11.3867C113.894 11.0905 114.034 10.8301 114.22 10.6055C114.406 10.3776 114.635 10.2002 114.908 10.0733C115.185 9.94632 115.504 9.88284 115.865 9.88284C116.272 9.88284 116.619 9.96422 116.906 10.127C117.192 10.2897 117.425 10.5078 117.604 10.7813C117.786 11.0547 117.92 11.3623 118.004 11.7041C118.089 12.0459 118.131 12.3975 118.131 12.7588V13.086C118.131 13.4538 118.107 13.8282 118.058 14.209C118.012 14.5866 117.923 14.9479 117.789 15.293C117.659 15.6381 117.469 15.9473 117.218 16.2207C116.967 16.4909 116.64 16.7058 116.237 16.8653C115.836 17.0215 115.341 17.0996 114.752 17.0996H114.659V16.333ZM122.155 13.7647H120.353L120.343 13.0078H121.979C122.249 13.0078 122.485 12.9623 122.687 12.8711C122.889 12.78 123.045 12.6498 123.156 12.4805C123.269 12.308 123.326 12.1029 123.326 11.8653C123.326 11.6048 123.276 11.3933 123.175 11.2305C123.077 11.0645 122.926 10.944 122.721 10.8692C122.519 10.791 122.262 10.752 121.949 10.752H120.563V17.0899H119.62V9.9805H121.949C122.314 9.9805 122.64 10.0179 122.926 10.0928C123.212 10.1644 123.455 10.2784 123.654 10.4346C123.855 10.5876 124.008 10.7829 124.113 11.0205C124.217 11.2582 124.269 11.543 124.269 11.875C124.269 12.168 124.194 12.4333 124.044 12.6709C123.894 12.9053 123.686 13.0974 123.419 13.2471C123.156 13.3968 122.846 13.4929 122.491 13.5352L122.155 13.7647ZM122.111 17.0899H119.982L120.514 16.3233H122.111C122.41 16.3233 122.664 16.2712 122.872 16.167C123.084 16.0629 123.245 15.9164 123.356 15.7276C123.466 15.5355 123.522 15.3093 123.522 15.0489C123.522 14.7852 123.475 14.5573 123.38 14.3653C123.286 14.1732 123.138 14.0251 122.936 13.9209C122.734 13.8168 122.474 13.7647 122.155 13.7647H120.812L120.822 13.0078H122.657L122.858 13.2813C123.199 13.3106 123.489 13.4082 123.727 13.5742C123.964 13.737 124.145 13.9453 124.269 14.1992C124.396 14.4532 124.459 14.7331 124.459 15.0391C124.459 15.4818 124.362 15.8562 124.166 16.1621C123.974 16.4649 123.702 16.696 123.351 16.8555C122.999 17.0117 122.586 17.0899 122.111 17.0899ZM129.083 9.97073H129.161V10.7373H129.083C128.605 10.7373 128.204 10.8155 127.882 10.9717C127.56 11.1247 127.304 11.3314 127.115 11.5918C126.927 11.849 126.79 12.1387 126.705 12.461C126.624 12.7832 126.583 13.1104 126.583 13.4424V14.4873C126.583 14.8031 126.621 15.083 126.696 15.3272C126.77 15.5681 126.873 15.7715 127.003 15.9375C127.133 16.1035 127.28 16.2289 127.443 16.3135C127.609 16.3981 127.781 16.4405 127.96 16.4405C128.169 16.4405 128.354 16.4014 128.517 16.3233C128.68 16.2419 128.816 16.1296 128.927 15.9864C129.041 15.8399 129.127 15.6673 129.186 15.4688C129.244 15.2702 129.274 15.0521 129.274 14.8145C129.274 14.6029 129.248 14.3994 129.196 14.2041C129.143 14.0056 129.064 13.8298 128.956 13.6768C128.849 13.5205 128.714 13.3985 128.551 13.3106C128.392 13.2194 128.201 13.1739 127.98 13.1739C127.729 13.1739 127.495 13.2357 127.277 13.3594C127.062 13.4798 126.884 13.6394 126.744 13.8379C126.608 14.0332 126.53 14.2464 126.51 14.4776L126.031 14.4727C126.077 14.1081 126.162 13.7972 126.285 13.5401C126.412 13.2797 126.569 13.0681 126.754 12.9053C126.943 12.7393 127.153 12.6188 127.384 12.544C127.618 12.4659 127.866 12.4268 128.126 12.4268C128.481 12.4268 128.787 12.4935 129.044 12.627C129.301 12.7604 129.513 12.9395 129.679 13.1641C129.845 13.3854 129.967 13.6361 130.045 13.916C130.127 14.1927 130.167 14.4776 130.167 14.7705C130.167 15.1058 130.12 15.42 130.026 15.7129C129.931 16.0059 129.79 16.2631 129.601 16.4844C129.415 16.7058 129.186 16.8783 128.912 17.002C128.639 17.1257 128.322 17.1875 127.96 17.1875C127.576 17.1875 127.241 17.1094 126.954 16.9532C126.668 16.7937 126.43 16.5821 126.241 16.3184C126.053 16.0547 125.911 15.7617 125.817 15.4395C125.722 15.1172 125.675 14.7901 125.675 14.458V14.0332C125.675 13.5319 125.726 13.0404 125.826 12.5586C125.927 12.0769 126.101 11.6407 126.349 11.25C126.6 10.8594 126.946 10.5485 127.389 10.3174C127.832 10.0863 128.396 9.97073 129.083 9.97073ZM135.768 14.8291H136.705C136.656 15.2784 136.528 15.6804 136.32 16.0352C136.111 16.39 135.817 16.6716 135.436 16.8799C135.055 17.085 134.58 17.1875 134.01 17.1875C133.593 17.1875 133.214 17.1094 132.872 16.9532C132.534 16.7969 132.242 16.5756 131.998 16.2891C131.754 15.9994 131.565 15.6527 131.432 15.2491C131.302 14.8422 131.237 14.3897 131.237 13.8916V13.1836C131.237 12.6856 131.302 12.2347 131.432 11.8311C131.565 11.4242 131.756 11.0759 132.003 10.7862C132.254 10.4964 132.555 10.2735 132.906 10.1172C133.258 9.96097 133.654 9.88284 134.093 9.88284C134.63 9.88284 135.084 9.98375 135.455 10.1856C135.826 10.3874 136.115 10.6673 136.32 11.0254C136.528 11.3802 136.656 11.792 136.705 12.2608H135.768C135.722 11.9287 135.638 11.6439 135.514 11.4063C135.39 11.1654 135.214 10.9798 134.987 10.8496C134.759 10.7194 134.461 10.6543 134.093 10.6543C133.777 10.6543 133.499 10.7145 133.258 10.835C133.02 10.9554 132.82 11.1263 132.657 11.3477C132.498 11.569 132.378 11.8343 132.296 12.1436C132.215 12.4528 132.174 12.7963 132.174 13.1739V13.8916C132.174 14.2399 132.21 14.5671 132.281 14.8731C132.356 15.1791 132.469 15.4476 132.618 15.6787C132.768 15.9099 132.959 16.0922 133.19 16.2256C133.421 16.3558 133.694 16.4209 134.01 16.4209C134.41 16.4209 134.729 16.3575 134.967 16.2305C135.205 16.1035 135.384 15.9213 135.504 15.6836C135.628 15.446 135.716 15.1612 135.768 14.8291ZM142.56 14.6973V15.4395H137.423V14.9073L140.607 9.9805H141.344L140.553 11.4063L138.448 14.6973H142.56ZM141.569 9.9805V17.0899H140.665V9.9805H141.569Z" fill="black"/>
<path d="M57.2274 165.229V165.768C57.2274 166.409 57.1473 166.983 56.9872 167.491C56.827 167.998 56.5966 168.43 56.2958 168.786C55.995 169.141 55.6337 169.412 55.2118 169.6C54.7938 169.787 54.3251 169.881 53.8055 169.881C53.3016 169.881 52.8387 169.787 52.4169 169.6C51.9989 169.412 51.6356 169.141 51.327 168.786C51.0223 168.43 50.786 167.998 50.618 167.491C50.4501 166.983 50.3661 166.409 50.3661 165.768V165.229C50.3661 164.588 50.4481 164.016 50.6122 163.512C50.7802 163.004 51.0165 162.573 51.3212 162.217C51.6259 161.858 51.9872 161.584 52.4052 161.397C52.827 161.209 53.2899 161.116 53.7938 161.116C54.3134 161.116 54.7821 161.209 55.2001 161.397C55.6219 161.584 55.9833 161.858 56.2841 162.217C56.5887 162.573 56.8212 163.004 56.9813 163.512C57.1454 164.016 57.2274 164.588 57.2274 165.229ZM56.1083 165.768V165.217C56.1083 164.709 56.0555 164.26 55.9501 163.87C55.8485 163.479 55.6981 163.151 55.4989 162.885C55.2997 162.62 55.0555 162.418 54.7665 162.282C54.4813 162.145 54.1571 162.077 53.7938 162.077C53.4423 162.077 53.1239 162.145 52.8387 162.282C52.5575 162.418 52.3153 162.62 52.1122 162.885C51.913 163.151 51.7587 163.479 51.6493 163.87C51.5399 164.26 51.4852 164.709 51.4852 165.217V165.768C51.4852 166.28 51.5399 166.733 51.6493 167.127C51.7587 167.518 51.9149 167.848 52.118 168.118C52.3251 168.383 52.5692 168.584 52.8505 168.721C53.1356 168.858 53.454 168.926 53.8055 168.926C54.1727 168.926 54.4989 168.858 54.7841 168.721C55.0692 168.584 55.3094 168.383 55.5048 168.118C55.704 167.848 55.8544 167.518 55.9559 167.127C56.0575 166.733 56.1083 166.28 56.1083 165.768ZM59.8407 164.42V169.764H58.7567V163.424H59.8114L59.8407 164.42ZM61.8212 163.389L61.8153 164.397C61.7255 164.377 61.6395 164.366 61.5575 164.362C61.4794 164.354 61.3895 164.35 61.288 164.35C61.038 164.35 60.8173 164.389 60.6259 164.467C60.4344 164.545 60.2723 164.655 60.1395 164.795C60.0067 164.936 59.9012 165.104 59.8231 165.299C59.7489 165.491 59.7001 165.702 59.6766 165.932L59.3719 166.108C59.3719 165.725 59.4091 165.366 59.4833 165.03C59.5614 164.694 59.6805 164.397 59.8407 164.139C60.0009 163.877 60.204 163.674 60.4501 163.53C60.7001 163.381 60.9969 163.307 61.3407 163.307C61.4188 163.307 61.5087 163.317 61.6102 163.336C61.7118 163.352 61.7821 163.37 61.8212 163.389ZM65.243 168.991C65.5009 168.991 65.7391 168.938 65.9579 168.832C66.1766 168.727 66.3563 168.582 66.4969 168.399C66.6376 168.211 66.7177 167.998 66.7372 167.76H67.7684C67.7489 168.135 67.6219 168.485 67.3876 168.809C67.1571 169.129 66.8544 169.389 66.4794 169.588C66.1044 169.784 65.6923 169.881 65.243 169.881C64.7665 169.881 64.3505 169.797 63.995 169.629C63.6434 169.461 63.3505 169.231 63.1161 168.938C62.8856 168.645 62.7118 168.309 62.5946 167.93C62.4813 167.547 62.4247 167.143 62.4247 166.717V166.471C62.4247 166.045 62.4813 165.643 62.5946 165.264C62.7118 164.881 62.8856 164.543 63.1161 164.25C63.3505 163.957 63.6434 163.727 63.995 163.559C64.3505 163.391 64.7665 163.307 65.243 163.307C65.7391 163.307 66.1727 163.409 66.5438 163.612C66.9149 163.811 67.2059 164.084 67.4169 164.432C67.6317 164.776 67.7489 165.166 67.7684 165.604H66.7372C66.7177 165.342 66.6434 165.106 66.5145 164.895C66.3895 164.684 66.2177 164.516 65.9989 164.391C65.7841 164.262 65.5321 164.198 65.243 164.198C64.911 164.198 64.6317 164.264 64.4052 164.397C64.1825 164.526 64.0048 164.702 63.8719 164.924C63.743 165.143 63.6493 165.387 63.5907 165.657C63.536 165.922 63.5087 166.194 63.5087 166.471V166.717C63.5087 166.995 63.536 167.268 63.5907 167.537C63.6454 167.807 63.7372 168.051 63.8661 168.27C63.9989 168.489 64.1766 168.664 64.3993 168.797C64.6259 168.926 64.9071 168.991 65.243 168.991ZM70.0712 160.764V169.764H68.9872V160.764H70.0712ZM69.8134 166.354L69.3622 166.336C69.3661 165.903 69.4305 165.502 69.5555 165.135C69.6805 164.764 69.8563 164.442 70.0829 164.168C70.3094 163.895 70.579 163.684 70.8915 163.536C71.2079 163.383 71.5575 163.307 71.9403 163.307C72.2528 163.307 72.5341 163.35 72.7841 163.436C73.0341 163.518 73.2469 163.651 73.4227 163.834C73.6024 164.018 73.7391 164.256 73.8329 164.549C73.9266 164.838 73.9735 165.192 73.9735 165.61V169.764H72.8837V165.598C72.8837 165.266 72.8348 165 72.7372 164.801C72.6395 164.598 72.4969 164.452 72.3094 164.362C72.1219 164.268 71.8915 164.221 71.618 164.221C71.3485 164.221 71.1024 164.278 70.8798 164.391C70.661 164.504 70.4716 164.661 70.3114 164.86C70.1552 165.059 70.0321 165.287 69.9423 165.545C69.8563 165.799 69.8134 166.069 69.8134 166.354ZM76.7743 163.424V169.764H75.6844V163.424H76.7743ZM75.6024 161.743C75.6024 161.567 75.6552 161.418 75.7606 161.297C75.87 161.176 76.0302 161.116 76.2411 161.116C76.4481 161.116 76.6063 161.176 76.7157 161.297C76.829 161.418 76.8856 161.567 76.8856 161.743C76.8856 161.911 76.829 162.055 76.7157 162.176C76.6063 162.293 76.4481 162.352 76.2411 162.352C76.0302 162.352 75.87 162.293 75.7606 162.176C75.6552 162.055 75.6024 161.911 75.6024 161.743ZM82.5106 168.534V160.764H83.6005V169.764H82.6044L82.5106 168.534ZM78.245 166.664V166.541C78.245 166.057 78.3036 165.618 78.4208 165.223C78.5419 164.825 78.7118 164.483 78.9305 164.198C79.1532 163.912 79.4169 163.694 79.7216 163.541C80.0302 163.385 80.3739 163.307 80.7528 163.307C81.1512 163.307 81.4989 163.377 81.7958 163.518C82.0966 163.655 82.3505 163.856 82.5575 164.121C82.7684 164.383 82.9344 164.7 83.0555 165.071C83.1766 165.442 83.2606 165.862 83.3075 166.33V166.87C83.2645 167.334 83.1805 167.752 83.0555 168.123C82.9344 168.495 82.7684 168.811 82.5575 169.073C82.3505 169.334 82.0966 169.536 81.7958 169.676C81.495 169.813 81.1434 169.881 80.7411 169.881C80.37 169.881 80.0302 169.801 79.7216 169.641C79.4169 169.481 79.1532 169.256 78.9305 168.967C78.7118 168.678 78.5419 168.338 78.4208 167.948C78.3036 167.553 78.245 167.125 78.245 166.664ZM79.3348 166.541V166.664C79.3348 166.981 79.3661 167.278 79.4286 167.555C79.495 167.832 79.5966 168.077 79.7333 168.287C79.87 168.498 80.0438 168.664 80.2548 168.786C80.4657 168.903 80.7177 168.961 81.0106 168.961C81.37 168.961 81.6649 168.885 81.8954 168.733C82.1298 168.58 82.3173 168.379 82.4579 168.129C82.5985 167.879 82.7079 167.608 82.786 167.315V165.903C82.7391 165.688 82.6708 165.481 82.5809 165.282C82.495 165.078 82.3817 164.899 82.2411 164.743C82.1044 164.582 81.9344 164.455 81.7313 164.362C81.5321 164.268 81.2958 164.221 81.0223 164.221C80.7255 164.221 80.4696 164.284 80.2548 164.409C80.0438 164.53 79.87 164.698 79.7333 164.912C79.5966 165.123 79.495 165.37 79.4286 165.651C79.3661 165.928 79.3348 166.225 79.3348 166.541ZM91.5751 166.418H89.2958V165.498H91.5751C92.0165 165.498 92.3739 165.428 92.6473 165.287C92.9208 165.147 93.12 164.952 93.245 164.702C93.3739 164.452 93.4384 164.166 93.4384 163.846C93.4384 163.553 93.3739 163.278 93.245 163.02C93.12 162.762 92.9208 162.555 92.6473 162.399C92.3739 162.239 92.0165 162.159 91.5751 162.159H89.5594V169.764H88.4286V161.233H91.5751C92.2196 161.233 92.7645 161.344 93.2098 161.567C93.6552 161.789 93.993 162.098 94.2235 162.493C94.454 162.883 94.5692 163.33 94.5692 163.834C94.5692 164.381 94.454 164.848 94.2235 165.235C93.993 165.621 93.6552 165.916 93.2098 166.12C92.7645 166.319 92.2196 166.418 91.5751 166.418ZM97.0126 163.424V169.764H95.9227V163.424H97.0126ZM95.8407 161.743C95.8407 161.567 95.8934 161.418 95.9989 161.297C96.1083 161.176 96.2684 161.116 96.4794 161.116C96.6864 161.116 96.8446 161.176 96.954 161.297C97.0673 161.418 97.1239 161.567 97.1239 161.743C97.1239 161.911 97.0673 162.055 96.954 162.176C96.8446 162.293 96.6864 162.352 96.4794 162.352C96.2684 162.352 96.1083 162.293 95.9989 162.176C95.8934 162.055 95.8407 161.911 95.8407 161.743ZM99.8368 164.778V169.764H98.7528V163.424H99.7782L99.8368 164.778ZM99.579 166.354L99.1278 166.336C99.1317 165.903 99.1962 165.502 99.3212 165.135C99.4462 164.764 99.6219 164.442 99.8485 164.168C100.075 163.895 100.345 163.684 100.657 163.536C100.974 163.383 101.323 163.307 101.706 163.307C102.018 163.307 102.3 163.35 102.55 163.436C102.8 163.518 103.013 163.651 103.188 163.834C103.368 164.018 103.505 164.256 103.599 164.549C103.692 164.838 103.739 165.192 103.739 165.61V169.764H102.649V165.598C102.649 165.266 102.6 165 102.503 164.801C102.405 164.598 102.263 164.452 102.075 164.362C101.888 164.268 101.657 164.221 101.384 164.221C101.114 164.221 100.868 164.278 100.645 164.391C100.427 164.504 100.237 164.661 100.077 164.86C99.9208 165.059 99.7977 165.287 99.7079 165.545C99.6219 165.799 99.579 166.069 99.579 166.354ZM106.475 160.764V169.764H105.386V160.764H106.475ZM110.349 163.424L107.583 166.383L106.036 167.989L105.948 166.834L107.056 165.51L109.024 163.424H110.349ZM109.358 169.764L107.097 166.741L107.659 165.774L110.636 169.764H109.358Z" fill="black"/>
<rect x="680.5" y="0.5" width="59" height="59" fill="white" stroke="black"/>
<rect x="680" y="120" width="60" height="60" fill="black"/>
</svg>
